<svg xmlns="http://www.w3.org/2000/svg" width="50" height="32">
    <path fill="#FFBB12" fill-rule="evenodd" d="M48.948 31.422a.907.907 0 0 1-.674.265H20.117a.91.91 0 0 1-.675-.265.91.91 0 0 1-.264-.674v-1.877c0-.274.088-.498.264-.675a.913.913 0 0 1 .675-.263h28.157a.91.91 0 0 1 .674.263.916.916 0 0 1 .264.675v1.877a.91.91 0 0 1-.264.674zM3.897 29.135a.931.931 0 0 1-.675.293.923.923 0 0 1-.674-.293l-1.467-1.466a.931.931 0 0 1-.293-.675c0-.254.098-.479.293-.675l11.527-11.527L1.081 3.265a.927.927 0 0 1-.293-.674c0-.254.098-.479.293-.675L2.548.45a.924.924 0 0 1 .674-.294c.254 0 .479.098.675.294l13.668 13.667a.931.931 0 0 1 .293.675.931.931 0 0 1-.293.675L3.897 29.135z"/>
</svg>
