<svg xmlns="http://www.w3.org/2000/svg" width="200" height="200">
    <path fill="#0076DB" fill-rule="evenodd" d="M195 200v-5h5v5h-5zm0-44h5v5h-5v-5zm0-39h5v5h-5v-5zm0-39h5v5h-5v-5zm0-39h5v5h-5v-5zm0-39h5v5h-5V0zm-39 195h5v5h-5v-5zm0-39h5v5h-5v-5zm0-39h5v5h-5v-5zm0-39h5v5h-5v-5zm0-39h5v5h-5v-5zm0-39h5v5h-5V0zm-39 195h5v5h-5v-5zm0-39h5v5h-5v-5zm0-39h5v5h-5v-5zm0-39h5v5h-5v-5zm0-39h5v5h-5v-5zm0-39h5v5h-5V0zM78 195h5v5h-5v-5zm0-39h5v5h-5v-5zm0-39h5v5h-5v-5zm0-39h5v5h-5v-5zm0-39h5v5h-5v-5zm0-39h5v5h-5V0zM39 195h5v5h-5v-5zm0-39h5v5h-5v-5zm0-39h5v5h-5v-5zm0-39h5v5h-5v-5zm0-39h5v5h-5v-5zm0-39h5v5h-5V0zM0 195h5v5H0v-5zm0-39h5v5H0v-5zm0-39h5v5H0v-5zm0-39h5v5H0v-5zm0-39h5v5H0v-5zM0 0h5v5H0V0z"/>
</svg>
