<svg xmlns="http://www.w3.org/2000/svg" width="40" height="50">
    <path fill="#FFBB12" fill-rule="evenodd" d="M39.094 24.051c-.03.19-.07.39-.13.629a19.327 19.327 0 0 1-1.327 3.904c-2.017 4.762-6.458 12.17-16.091 20.166a2.84 2.84 0 0 1-3.613 0C8.29 40.744 3.848 33.346 1.822 28.544A18.878 18.878 0 0 1 .504 24.67c-.109-.429-.139-.659-.139-.659a19.924 19.924 0 0 1-.26-5.62C1.043 8.597 9.179.949 19.021.61c.229-.01.469-.01.698-.01C30.59.6 39.434 9.445 39.453 20.307a19.55 19.55 0 0 1-.359 3.744zM19.111 3.056c-8.625.299-15.742 6.998-16.57 15.574a17.59 17.59 0 0 0 .229 4.962c0 .02.01.04.01.06.01.05.04.209.1.469.27 1.188.659 2.336 1.168 3.434 1.936 4.583 6.179 11.622 15.432 19.309.09.07.19.09.25.09.069 0 .159-.02.249-.09 9.253-7.678 13.485-14.716 15.412-19.269a17.994 17.994 0 0 0 1.178-3.464c.07-.31.1-.479.1-.499.209-1.118.319-2.216.319-3.315 0-9.734-8.085-17.601-17.877-17.261zm.608 27.684c-5.629 0-10.201-4.592-10.201-10.213 0-5.621 4.572-10.203 10.201-10.203 5.63 0 10.202 4.592 10.202 10.213 0 5.621-4.572 10.203-10.202 10.203zm0-17.96c-4.272 0-7.755 3.484-7.755 7.757s3.473 7.757 7.755 7.757c4.283 0 7.756-3.484 7.756-7.757s-3.483-7.757-7.756-7.757z"/>
</svg>
