<svg xmlns="http://www.w3.org/2000/svg" width="57" height="57">
    <path fill="#FFBB12" fill-rule="evenodd" stroke="#0076DB" d="M45.697 35.622a24.226 24.226 0 0 0-9.242-5.797c3.684-2.538 6.105-6.785 6.105-11.587 0-7.752-6.307-14.06-14.06-14.06s-14.06 6.308-14.06 14.06c0 4.802 2.42 9.049 6.105 11.587a24.226 24.226 0 0 0-9.242 5.797A24.16 24.16 0 0 0 4.18 52.819h3.8c0-11.316 9.205-20.52 20.52-20.52s20.52 9.204 20.52 20.52h3.8a24.16 24.16 0 0 0-7.123-17.197zM28.5 28.499c-5.657 0-10.26-4.603-10.26-10.261 0-5.657 4.603-10.259 10.26-10.259s10.26 4.602 10.26 10.259c0 5.658-4.603 10.261-10.26 10.261z"/>
</svg>
