<svg xmlns="http://www.w3.org/2000/svg" width="48" height="50">
    <path fill="#FFBB12" fill-rule="evenodd" d="M46.353 33.776c1.001-1.276 1.481-2.643 1.42-4.051-.061-1.552-.756-2.766-1.328-3.511.664-1.653.919-4.256-1.296-6.276-1.624-1.48-4.381-2.143-8.199-1.959-2.686.122-4.932.622-5.024.642h-.01c-.511.092-1.052.205-1.603.327-.041-.653.071-2.275 1.276-5.929 1.43-4.347 1.348-7.674-.265-9.899C29.629.783 26.923.6 26.127.6c-.766 0-1.47.316-1.971.898-1.133 1.316-1 3.745-.858 4.868-1.347 3.612-5.125 12.47-8.321 14.929-.061.041-.112.092-.163.143-.94.99-1.573 2.062-2.002 3a4.218 4.218 0 0 0-2.021-.51H4.563a4.25 4.25 0 0 0-4.248 4.245v16.583a4.25 4.25 0 0 0 4.248 4.246h6.228c.909 0 1.756-.287 2.45-.776l2.4.286c.367.051 6.902.877 13.61.745 1.215.092 2.359.143 3.421.143 1.827 0 3.42-.143 4.747-.429 3.125-.663 5.259-1.99 6.341-3.939.827-1.49.827-2.97.694-3.909 2.032-1.836 2.39-3.867 2.318-5.296a6.894 6.894 0 0 0-.419-2.051zm-41.79 12.47a1.491 1.491 0 0 1-1.491-1.49V28.163c0-.826.674-1.49 1.491-1.49h6.228c.827 0 1.491.674 1.491 1.49v16.583c0 .827-.674 1.49-1.491 1.49H4.563v.01zM43.74 32.582a1.37 1.37 0 0 0-.184 1.663c0 .01.418.725.469 1.705.072 1.336-.571 2.52-1.919 3.53-.48.368-.674 1-.47 1.572 0 .01.439 1.357-.275 2.633-.684 1.225-2.206 2.102-4.513 2.592-1.848.398-4.36.469-7.444.224h-.143c-6.565.143-13.202-.714-13.273-.724h-.01l-1.032-.123a4.26 4.26 0 0 0 .092-.898V28.163c0-.439-.071-.867-.194-1.265.184-.684.695-2.205 1.899-3.501 4.585-3.633 9.067-15.889 9.261-16.419.082-.215.102-.45.061-.684-.173-1.143-.112-2.541.133-2.959.541.01 2.001.163 2.88 1.377 1.041 1.439 1 4.011-.123 7.419-1.715 5.195-1.858 7.93-.5 9.134.674.602 1.572.632 2.226.398a28.82 28.82 0 0 1 1.776-.358l.133-.03c3.134-.684 8.75-1.102 10.7.674 1.654 1.51.48 3.51.348 3.724-.378.572-.266 1.317.245 1.776.01.01 1.082 1.021 1.133 2.378.041.908-.388 1.836-1.276 2.755z"/>
</svg>
